<svg width="376" height="147" viewBox="0 0 376 147" fill="none" xmlns="http://www.w3.org/2000/svg">
<g clip-path="url(#clip0_28_183)">
<path fill-rule="evenodd" clip-rule="evenodd" d="M181.055 94.3102L199.35 46.2236H206.407L224.636 94.3102H218.263L213.192 81.3264H192.293L187.222 94.3102H181.055ZM194.073 75.8999H211.412L202.707 52.7487L194.073 75.8999ZM251.117 59.2886H256.736V94.325H251.871L251.117 89.6542C249.061 92.2642 245.704 94.7379 239.949 94.7379C232.274 94.7379 226.173 90.4099 226.173 78.8012V59.2886H231.792V78.4546C231.792 85.7354 235.083 89.5841 240.908 89.5841C247.281 89.5841 251.117 84.7069 251.117 76.8068V59.2886ZM265.731 64.4349H259.428V59.2849H265.731V49.4604H271.35V59.2849H280.396V64.4349H271.35V85.1124C271.35 88.0653 272.38 89.1676 275.395 89.1676H280.944V94.3176H274.847C268.132 94.3176 265.731 91.3647 265.731 85.1825V64.4349ZM315.339 74.8013V94.3102H309.72V75.1442C309.72 67.8633 306.223 64.0146 300.196 64.0146C293.683 64.0146 289.641 68.8919 289.641 76.792V94.3102H284.022V46.2236H289.641V65.0469C291.697 61.7511 295.261 58.8646 301.152 58.8646C308.966 58.8646 315.339 63.1926 315.339 74.8013ZM320.557 69.1757C320.557 55.5062 327.96 45.8218 338.786 45.8218C349.543 45.8218 356.945 55.5062 356.945 69.1757V71.3766C356.945 85.7318 349.543 94.7305 338.786 94.7305C327.96 94.7305 320.557 85.7318 320.557 71.3766V69.1757ZM351.12 69.3822C351.12 57.9799 346.185 51.1082 338.786 51.1082C331.318 51.1082 326.382 57.9799 326.382 69.3822V71.1701C326.382 82.5724 331.318 89.4441 338.786 89.4441C346.189 89.4441 351.12 82.5724 351.12 71.1701V69.3822ZM414.019 76.792C414.019 87.5086 406.892 94.7231 397.231 94.7231C391.337 94.7231 387.361 92.3195 385.239 88.9537L384.486 94.3102H379.62V46.2236H385.239V64.9105C387.567 61.6774 391.337 58.8646 397.231 58.8646C406.892 58.8646 414.019 65.3897 414.019 76.792ZM408.264 76.792C408.264 69.1684 403.601 63.8782 396.68 63.8782C389.829 63.8782 385.17 69.1684 385.17 76.6556C385.17 84.3493 389.829 89.7095 396.68 89.7095C403.601 89.7095 408.264 84.4194 408.264 76.792ZM413.809 59.2738H419.77L430.53 87.2322L440.945 59.2738H446.906L430.803 100.216C428.611 105.849 427.305 108.046 422.374 108.046H415.659V102.896H420.66C423.882 102.896 424.426 102.07 425.731 98.7746L427.441 94.513L413.809 59.2738ZM488.898 94.7305C475.398 94.7305 466.01 84.4267 466.01 70.2743C466.01 56.1256 475.398 45.8218 488.898 45.8218C502.398 45.8218 511.786 56.1256 511.786 70.2743C511.786 84.4267 502.398 94.7305 488.898 94.7305ZM488.898 89.2339C498.901 89.2339 505.686 81.3338 505.686 70.2743C505.686 59.2148 498.901 51.3147 488.898 51.3147C478.892 51.3147 472.107 59.2148 472.107 70.2743C472.107 81.3338 478.892 89.2339 488.898 89.2339ZM517.402 46.2236H523.021V77.8906L540.562 59.2738H547.483L533.847 73.7691L548.443 94.3102H541.658L530.078 77.8242L523.021 85.1051V94.3065H517.402V46.2236ZM555.213 64.4349H548.91V59.2849H555.213V49.4604H560.832V59.2849H569.878V64.4349H560.832V85.1124C560.832 88.0653 561.862 89.1676 564.877 89.1676H570.426V94.3176H564.326C557.611 94.3176 555.213 91.3647 555.213 85.1825V64.4349ZM606.513 89.1676V94.3176H603.431C598.772 94.3176 597.194 92.3269 597.124 88.8911C594.933 92.0504 591.439 94.7305 585.408 94.7305C577.733 94.7305 572.526 90.8855 572.526 84.4968C572.526 77.4888 577.391 73.5737 586.574 73.5737H596.852V71.1664C596.852 66.6357 593.631 63.8893 588.152 63.8893C583.216 63.8893 579.925 66.2229 579.241 69.7951H573.622C574.446 62.9234 579.995 58.872 588.424 58.872C597.334 58.872 602.471 63.3363 602.471 71.513V86.8303C602.471 88.6846 603.159 89.1676 604.733 89.1676H606.513ZM596.856 78.3109H586.026C581.025 78.3109 578.215 80.1688 578.215 84.1503C578.215 87.5861 581.161 89.9233 585.82 89.9233C592.811 89.9233 596.856 85.8682 596.856 80.0288V78.3109ZM59.5937 62.2857V62.2967L56.7584 62.7575C54.9859 63.0451 53.3789 61.6811 53.3789 59.8821V29.5607C53.3789 25.4503 55.8612 21.7417 59.6526 20.1896C67.32 17.0524 81.0624 12.2305 95.6397 11.0951C97.5078 10.9513 98.5007 13.001 98.2396 14.483L97.1769 23.7803C93.9996 43.1086 78.8891 59.1006 59.5937 62.2857ZM106.481 23.7766L106.47 23.7655L105.403 14.4682C105.179 13.012 106.15 10.9366 108.014 11.0803C122.595 12.2158 136.349 17.0377 144.005 20.1749C147.796 21.738 150.279 25.4355 150.279 29.546V59.8673C150.279 61.6663 148.672 63.0414 146.899 62.7428L144.064 62.282C124.768 59.0969 109.658 43.1196 106.481 23.7766ZM144.053 70.7646C145.943 70.5545 150.15 68.9656 150.043 72.3424C147.289 99.11 120.609 120.499 108.489 128.698C107.106 129.619 105.451 128.473 105.451 126.803C105.451 93.5434 117.693 75.9773 144.053 70.7646ZM59.6011 70.7793C85.9608 75.992 98.1992 93.5582 98.1992 126.814C98.1992 128.484 96.548 129.634 95.1653 128.713C83.0409 120.514 56.365 99.1248 53.6106 72.3572C53.5039 68.9803 57.7109 70.5692 59.6011 70.7793Z" fill="black"/>
</g>
<defs>
<clipPath id="clip0_28_183">
<rect width="375.142" height="146.893" fill="white"/>
</clipPath>
</defs>
</svg>
